<svg width="1024" height="1024" viewBox="0 0 1024 1024" fill="none" xmlns="http://www.w3.org/2000/svg">
<path d="M798 379.5H645.5V256C645.5 236.811 638.694 220.473 625.139 207.276C611.651 194.143 595.532 187.5 577 187.5H448C429.468 187.5 413.349 194.143 399.861 207.276C386.306 220.473 379.5 236.811 379.5 256V379.5H226C217.473 379.5 210.013 381.837 203.925 386.747C197.887 391.617 193.565 398.719 190.714 407.629C185.062 425.291 186.9 440.264 197.818 451.182L197.934 451.298L198.057 451.405L477.874 693.246C487.33 703.341 498.952 708.5 512.5 708.5C526.049 708.5 537.672 703.34 547.128 693.244L825.949 451.399L826.069 451.295L826.182 451.182C837.1 440.264 838.938 425.291 833.286 407.629C830.435 398.719 826.113 391.617 820.075 386.747C813.987 381.837 806.527 379.5 798 379.5ZM512 1019.5C420.111 1019.5 335.226 996.869 257.259 951.608C179.269 906.334 117.665 844.731 72.3918 766.741C27.1313 688.774 4.5 603.889 4.5 512C4.5 443.269 17.8791 377.536 44.6395 314.765C71.429 251.925 107.448 197.915 152.682 152.682C197.915 107.448 251.925 71.429 314.765 44.6395C377.536 17.8791 443.269 4.5 512 4.5C580.731 4.5 646.464 17.8791 709.235 44.6395C772.075 71.429 826.085 107.448 871.318 152.682C916.552 197.915 952.571 251.925 979.36 314.765C1006.12 377.536 1019.5 443.269 1019.5 512C1019.5 603.889 996.869 688.774 951.608 766.741C906.334 844.731 844.731 906.334 766.741 951.608C688.774 996.869 603.889 1019.5 512 1019.5ZM672 836.5C681.904 836.5 690.536 832.828 697.682 825.682C704.828 818.536 708.5 809.904 708.5 800C708.5 790.096 704.828 781.464 697.682 774.318C690.536 767.172 681.904 763.5 672 763.5H352C342.096 763.5 333.464 767.172 326.318 774.318C319.172 781.464 315.5 790.096 315.5 800C315.5 809.904 319.172 818.536 326.318 825.682C333.464 832.828 342.096 836.5 352 836.5H672Z" fill="#699BF7" stroke="white" stroke-width="9"/>
</svg>
